<svg xmlns="http://www.w3.org/2000/svg" version="1.1" xmlns:xlink="http://www.w3.org/1999/xlink" xmlns:svgjs="http://svgjs.dev/svgjs" width="1440" height="560" preserveAspectRatio="none" viewBox="0 0 1440 560"><g mask="url(&quot;#SvgjsMask1106&quot;)" fill="none"><rect width="1440" height="560" x="0" y="0" fill="url(&quot;#SvgjsLinearGradient1107&quot;)"></rect><path d="M-78.65 378.5L-78.65 378.5" stroke="rgba(128, 133, 144, 1)" stroke-width="1.5"></path><path d="M-78.65 378.5L66.19 365.16" stroke="rgba(128, 133, 144, 1)" stroke-width="1.5"></path><path d="M-78.65 378.5L-77.65 541.36" stroke="rgba(128, 133, 144, 1)" stroke-width="1.5"></path><path d="M-77.65 541.36L-77.65 541.36" stroke="rgba(128, 133, 144, 1)" stroke-width="1.5"></path><path d="M-77.65 541.36L-103.86 706.5" stroke="rgba(128, 133, 144, 1)" stroke-width="1.5"></path><path d="M-77.65 541.36L82.93 678.68" stroke="rgba(128, 133, 144, 1)" stroke-width="1.5"></path><path d="M-77.65 541.36L66.19 365.16" stroke="rgba(128, 133, 144, 1)" stroke-width="1.5"></path><path d="M-77.65 541.36L206.27 549.65" stroke="rgba(128, 133, 144, 1)" stroke-width="1.5"></path><path d="M-77.65 541.36L188.47 686.68" stroke="rgba(128, 133, 144, 1)" stroke-width="1.5"></path><path d="M-103.86 706.5L-103.86 706.5" stroke="rgba(128, 133, 144, 1)" stroke-width="1.5"></path><path d="M-103.86 706.5L82.93 678.68" stroke="rgba(128, 133, 144, 1)" stroke-width="1.5"></path><path d="M-103.86 706.5L188.47 686.68" stroke="rgba(128, 133, 144, 1)" stroke-width="1.5"></path><path d="M-103.86 706.5L-78.65 378.5" stroke="rgba(128, 133, 144, 1)" stroke-width="1.5"></path><path d="M-103.86 706.5L206.27 549.65" stroke="rgba(128, 133, 144, 1)" stroke-width="1.5"></path><path d="M66.19 365.16L66.19 365.16" stroke="rgba(128, 133, 144, 1)" stroke-width="1.5"></path><path d="M66.19 365.16L246.81 406.8" stroke="rgba(128, 133, 144, 1)" stroke-width="1.5"></path><path d="M66.19 365.16L206.27 549.65" stroke="rgba(128, 133, 144, 1)" stroke-width="1.5"></path><path d="M82.93 678.68L82.93 678.68" stroke="rgba(128, 133, 144, 1)" stroke-width="1.5"></path><path d="M82.93 678.68L188.47 686.68" stroke="rgba(128, 133, 144, 1)" stroke-width="1.5"></path><path d="M82.93 678.68L206.27 549.65" stroke="rgba(128, 133, 144, 1)" stroke-width="1.5"></path><path d="M82.93 678.68L353.74 668.9" stroke="rgba(128, 133, 144, 1)" stroke-width="1.5"></path><path d="M82.93 678.68L66.19 365.16" stroke="rgba(128, 133, 144, 1)" stroke-width="1.5"></path><path d="M246.81 406.8L246.81 406.8" stroke="rgba(128, 133, 144, 1)" stroke-width="1.5"></path><path d="M246.81 406.8L383.46 398.82" stroke="rgba(128, 133, 144, 1)" stroke-width="1.5"></path><path d="M246.81 406.8L363.07 488.83" stroke="rgba(128, 133, 144, 1)" stroke-width="1.5"></path><path d="M206.27 549.65L206.27 549.65" stroke="rgba(128, 133, 144, 1)" stroke-width="1.5"></path><path d="M206.27 549.65L188.47 686.68" stroke="rgba(128, 133, 144, 1)" stroke-width="1.5"></path><path d="M206.27 549.65L246.81 406.8" stroke="rgba(128, 133, 144, 1)" stroke-width="1.5"></path><path d="M206.27 549.65L363.07 488.83" stroke="rgba(128, 133, 144, 1)" stroke-width="1.5"></path><path d="M188.47 686.68L188.47 686.68" stroke="rgba(128, 133, 144, 1)" stroke-width="1.5"></path><path d="M383.46 398.82L383.46 398.82" stroke="rgba(128, 133, 144, 1)" stroke-width="1.5"></path><path d="M383.46 398.82L363.07 488.83" stroke="rgba(128, 133, 144, 1)" stroke-width="1.5"></path><path d="M383.46 398.82L489.45 513.53" stroke="rgba(128, 133, 144, 1)" stroke-width="1.5"></path><path d="M383.46 398.82L546.23 403.23" stroke="rgba(128, 133, 144, 1)" stroke-width="1.5"></path><path d="M363.07 488.83L363.07 488.83" stroke="rgba(128, 133, 144, 1)" stroke-width="1.5"></path><path d="M363.07 488.83L489.45 513.53" stroke="rgba(128, 133, 144, 1)" stroke-width="1.5"></path><path d="M353.74 668.9L353.74 668.9" stroke="rgba(128, 133, 144, 1)" stroke-width="1.5"></path><path d="M353.74 668.9L188.47 686.68" stroke="rgba(128, 133, 144, 1)" stroke-width="1.5"></path><path d="M546.23 403.23L546.23 403.23" stroke="rgba(128, 133, 144, 1)" stroke-width="1.5"></path><path d="M546.23 403.23L489.45 513.53" stroke="rgba(128, 133, 144, 1)" stroke-width="1.5"></path><path d="M546.23 403.23L677.2 397.67" stroke="rgba(128, 133, 144, 1)" stroke-width="1.5"></path><path d="M546.23 403.23L658.69 498.69" stroke="rgba(128, 133, 144, 1)" stroke-width="1.5"></path><path d="M546.23 403.23L363.07 488.83" stroke="rgba(128, 133, 144, 1)" stroke-width="1.5"></path><path d="M489.45 513.53L489.45 513.53" stroke="rgba(128, 133, 144, 1)" stroke-width="1.5"></path><path d="M526.57 696.89L526.57 696.89" stroke="rgba(128, 133, 144, 1)" stroke-width="1.5"></path><path d="M526.57 696.89L644.11 664.74" stroke="rgba(128, 133, 144, 1)" stroke-width="1.5"></path><path d="M526.57 696.89L353.74 668.9" stroke="rgba(128, 133, 144, 1)" stroke-width="1.5"></path><path d="M526.57 696.89L489.45 513.53" stroke="rgba(128, 133, 144, 1)" stroke-width="1.5"></path><path d="M526.57 696.89L658.69 498.69" stroke="rgba(128, 133, 144, 1)" stroke-width="1.5"></path><path d="M685.9 251.99L685.9 251.99" stroke="rgba(128, 133, 144, 1)" stroke-width="1.5"></path><path d="M685.9 251.99L796.13 255.68" stroke="rgba(128, 133, 144, 1)" stroke-width="1.5"></path><path d="M685.9 251.99L677.2 397.67" stroke="rgba(128, 133, 144, 1)" stroke-width="1.5"></path><path d="M685.9 251.99L546.23 403.23" stroke="rgba(128, 133, 144, 1)" stroke-width="1.5"></path><path d="M677.2 397.67L677.2 397.67" stroke="rgba(128, 133, 144, 1)" stroke-width="1.5"></path><path d="M677.2 397.67L658.69 498.69" stroke="rgba(128, 133, 144, 1)" stroke-width="1.5"></path><path d="M677.2 397.67L853.89 398.72" stroke="rgba(128, 133, 144, 1)" stroke-width="1.5"></path><path d="M677.2 397.67L796.13 255.68" stroke="rgba(128, 133, 144, 1)" stroke-width="1.5"></path><path d="M677.2 397.67L822.23 549.14" stroke="rgba(128, 133, 144, 1)" stroke-width="1.5"></path><path d="M658.69 498.69L658.69 498.69" stroke="rgba(128, 133, 144, 1)" stroke-width="1.5"></path><path d="M644.11 664.74L644.11 664.74" stroke="rgba(128, 133, 144, 1)" stroke-width="1.5"></path><path d="M644.11 664.74L658.69 498.69" stroke="rgba(128, 133, 144, 1)" stroke-width="1.5"></path><path d="M644.11 664.74L814.85 702.71" stroke="rgba(128, 133, 144, 1)" stroke-width="1.5"></path><path d="M644.11 664.74L822.23 549.14" stroke="rgba(128, 133, 144, 1)" stroke-width="1.5"></path><path d="M854.89 74.6L854.89 74.6" stroke="rgba(128, 133, 144, 1)" stroke-width="1.5"></path><path d="M854.89 74.6L1011.94 111.6" stroke="rgba(128, 133, 144, 1)" stroke-width="1.5"></path><path d="M854.89 74.6L796.13 255.68" stroke="rgba(128, 133, 144, 1)" stroke-width="1.5"></path><path d="M854.89 74.6L994.97 -73.48" stroke="rgba(128, 133, 144, 1)" stroke-width="1.5"></path><path d="M854.89 74.6L685.9 251.99" stroke="rgba(128, 133, 144, 1)" stroke-width="1.5"></path><path d="M854.89 74.6L1142.85 65.08" stroke="rgba(128, 133, 144, 1)" stroke-width="1.5"></path><path d="M796.13 255.68L796.13 255.68" stroke="rgba(128, 133, 144, 1)" stroke-width="1.5"></path><path d="M796.13 255.68L853.89 398.72" stroke="rgba(128, 133, 144, 1)" stroke-width="1.5"></path><path d="M853.89 398.72L853.89 398.72" stroke="rgba(128, 133, 144, 1)" stroke-width="1.5"></path><path d="M853.89 398.72L974.18 343.29" stroke="rgba(128, 133, 144, 1)" stroke-width="1.5"></path><path d="M853.89 398.72L822.23 549.14" stroke="rgba(128, 133, 144, 1)" stroke-width="1.5"></path><path d="M822.23 549.14L822.23 549.14" stroke="rgba(128, 133, 144, 1)" stroke-width="1.5"></path><path d="M822.23 549.14L814.85 702.71" stroke="rgba(128, 133, 144, 1)" stroke-width="1.5"></path><path d="M814.85 702.71L814.85 702.71" stroke="rgba(128, 133, 144, 1)" stroke-width="1.5"></path><path d="M814.85 702.71L984.04 660.38" stroke="rgba(128, 133, 144, 1)" stroke-width="1.5"></path><path d="M814.85 702.71L658.69 498.69" stroke="rgba(128, 133, 144, 1)" stroke-width="1.5"></path><path d="M814.85 702.71L991.14 512.77" stroke="rgba(128, 133, 144, 1)" stroke-width="1.5"></path><path d="M814.85 702.71L526.57 696.89" stroke="rgba(128, 133, 144, 1)" stroke-width="1.5"></path><path d="M994.97 -73.48L994.97 -73.48" stroke="rgba(128, 133, 144, 1)" stroke-width="1.5"></path><path d="M994.97 -73.48L1149.04 -40.62" stroke="rgba(128, 133, 144, 1)" stroke-width="1.5"></path><path d="M994.97 -73.48L1011.94 111.6" stroke="rgba(128, 133, 144, 1)" stroke-width="1.5"></path><path d="M1011.94 111.6L1011.94 111.6" stroke="rgba(128, 133, 144, 1)" stroke-width="1.5"></path><path d="M1011.94 111.6L1142.85 65.08" stroke="rgba(128, 133, 144, 1)" stroke-width="1.5"></path><path d="M1011.94 111.6L1142.34 249.88" stroke="rgba(128, 133, 144, 1)" stroke-width="1.5"></path><path d="M1011.94 111.6L1149.04 -40.62" stroke="rgba(128, 133, 144, 1)" stroke-width="1.5"></path><path d="M1011.94 111.6L974.18 343.29" stroke="rgba(128, 133, 144, 1)" stroke-width="1.5"></path><path d="M974.18 343.29L974.18 343.29" stroke="rgba(128, 133, 144, 1)" stroke-width="1.5"></path><path d="M974.18 343.29L1096.87 374.51" stroke="rgba(128, 133, 144, 1)" stroke-width="1.5"></path><path d="M974.18 343.29L991.14 512.77" stroke="rgba(128, 133, 144, 1)" stroke-width="1.5"></path><path d="M974.18 343.29L1142.34 249.88" stroke="rgba(128, 133, 144, 1)" stroke-width="1.5"></path><path d="M991.14 512.77L991.14 512.77" stroke="rgba(128, 133, 144, 1)" stroke-width="1.5"></path><path d="M991.14 512.77L984.04 660.38" stroke="rgba(128, 133, 144, 1)" stroke-width="1.5"></path><path d="M991.14 512.77L1143.39 549.87" stroke="rgba(128, 133, 144, 1)" stroke-width="1.5"></path><path d="M984.04 660.38L984.04 660.38" stroke="rgba(128, 133, 144, 1)" stroke-width="1.5"></path><path d="M984.04 660.38L1161.37 678.54" stroke="rgba(128, 133, 144, 1)" stroke-width="1.5"></path><path d="M984.04 660.38L1143.39 549.87" stroke="rgba(128, 133, 144, 1)" stroke-width="1.5"></path><path d="M984.04 660.38L822.23 549.14" stroke="rgba(128, 133, 144, 1)" stroke-width="1.5"></path><path d="M984.04 660.38L853.89 398.72" stroke="rgba(128, 133, 144, 1)" stroke-width="1.5"></path><path d="M1149.04 -40.62L1149.04 -40.62" stroke="rgba(128, 133, 144, 1)" stroke-width="1.5"></path><path d="M1149.04 -40.62L1142.85 65.08" stroke="rgba(128, 133, 144, 1)" stroke-width="1.5"></path><path d="M1149.04 -40.62L1263.31 51.96" stroke="rgba(128, 133, 144, 1)" stroke-width="1.5"></path><path d="M1149.04 -40.62L1294.51 -86.35" stroke="rgba(128, 133, 144, 1)" stroke-width="1.5"></path><path d="M1142.85 65.08L1142.85 65.08" stroke="rgba(128, 133, 144, 1)" stroke-width="1.5"></path><path d="M1142.85 65.08L1263.31 51.96" stroke="rgba(128, 133, 144, 1)" stroke-width="1.5"></path><path d="M1142.34 249.88L1142.34 249.88" stroke="rgba(128, 133, 144, 1)" stroke-width="1.5"></path><path d="M1142.34 249.88L1249.82 226.25" stroke="rgba(128, 133, 144, 1)" stroke-width="1.5"></path><path d="M1142.34 249.88L1096.87 374.51" stroke="rgba(128, 133, 144, 1)" stroke-width="1.5"></path><path d="M1142.34 249.88L1268.01 348.06" stroke="rgba(128, 133, 144, 1)" stroke-width="1.5"></path><path d="M1142.34 249.88L1142.85 65.08" stroke="rgba(128, 133, 144, 1)" stroke-width="1.5"></path><path d="M1096.87 374.51L1096.87 374.51" stroke="rgba(128, 133, 144, 1)" stroke-width="1.5"></path><path d="M1143.39 549.87L1143.39 549.87" stroke="rgba(128, 133, 144, 1)" stroke-width="1.5"></path><path d="M1143.39 549.87L1161.37 678.54" stroke="rgba(128, 133, 144, 1)" stroke-width="1.5"></path><path d="M1143.39 549.87L1284.12 490.8" stroke="rgba(128, 133, 144, 1)" stroke-width="1.5"></path><path d="M1161.37 678.54L1161.37 678.54" stroke="rgba(128, 133, 144, 1)" stroke-width="1.5"></path><path d="M1161.37 678.54L1302.32 696.61" stroke="rgba(128, 133, 144, 1)" stroke-width="1.5"></path><path d="M1161.37 678.54L1284.12 490.8" stroke="rgba(128, 133, 144, 1)" stroke-width="1.5"></path><path d="M1161.37 678.54L991.14 512.77" stroke="rgba(128, 133, 144, 1)" stroke-width="1.5"></path><path d="M1294.51 -86.35L1294.51 -86.35" stroke="rgba(128, 133, 144, 1)" stroke-width="1.5"></path><path d="M1294.51 -86.35L1424.39 -46.4" stroke="rgba(128, 133, 144, 1)" stroke-width="1.5"></path><path d="M1263.31 51.96L1263.31 51.96" stroke="rgba(128, 133, 144, 1)" stroke-width="1.5"></path><path d="M1263.31 51.96L1294.51 -86.35" stroke="rgba(128, 133, 144, 1)" stroke-width="1.5"></path><path d="M1263.31 51.96L1412.53 69.66" stroke="rgba(128, 133, 144, 1)" stroke-width="1.5"></path><path d="M1263.31 51.96L1249.82 226.25" stroke="rgba(128, 133, 144, 1)" stroke-width="1.5"></path><path d="M1263.31 51.96L1424.39 -46.4" stroke="rgba(128, 133, 144, 1)" stroke-width="1.5"></path><path d="M1249.82 226.25L1249.82 226.25" stroke="rgba(128, 133, 144, 1)" stroke-width="1.5"></path><path d="M1249.82 226.25L1268.01 348.06" stroke="rgba(128, 133, 144, 1)" stroke-width="1.5"></path><path d="M1268.01 348.06L1268.01 348.06" stroke="rgba(128, 133, 144, 1)" stroke-width="1.5"></path><path d="M1268.01 348.06L1284.12 490.8" stroke="rgba(128, 133, 144, 1)" stroke-width="1.5"></path><path d="M1284.12 490.8L1284.12 490.8" stroke="rgba(128, 133, 144, 1)" stroke-width="1.5"></path><path d="M1284.12 490.8L1424.59 529.43" stroke="rgba(128, 133, 144, 1)" stroke-width="1.5"></path><path d="M1284.12 490.8L1302.32 696.61" stroke="rgba(128, 133, 144, 1)" stroke-width="1.5"></path><path d="M1284.12 490.8L1442.22 356.59" stroke="rgba(128, 133, 144, 1)" stroke-width="1.5"></path><path d="M1284.12 490.8L1096.87 374.51" stroke="rgba(128, 133, 144, 1)" stroke-width="1.5"></path><path d="M1302.32 696.61L1302.32 696.61" stroke="rgba(128, 133, 144, 1)" stroke-width="1.5"></path><path d="M1302.32 696.61L1404.28 678.62" stroke="rgba(128, 133, 144, 1)" stroke-width="1.5"></path><path d="M1302.32 696.61L1424.59 529.43" stroke="rgba(128, 133, 144, 1)" stroke-width="1.5"></path><path d="M1302.32 696.61L1143.39 549.87" stroke="rgba(128, 133, 144, 1)" stroke-width="1.5"></path><path d="M1302.32 696.61L1573.4 670.1" stroke="rgba(128, 133, 144, 1)" stroke-width="1.5"></path><path d="M1424.39 -46.4L1424.39 -46.4" stroke="rgba(128, 133, 144, 1)" stroke-width="1.5"></path><path d="M1424.39 -46.4L1412.53 69.66" stroke="rgba(128, 133, 144, 1)" stroke-width="1.5"></path><path d="M1424.39 -46.4L1558.07 -108.92" stroke="rgba(128, 133, 144, 1)" stroke-width="1.5"></path><path d="M1424.39 -46.4L1557.59 107.69" stroke="rgba(128, 133, 144, 1)" stroke-width="1.5"></path><path d="M1424.39 -46.4L1421.62 200.45" stroke="rgba(128, 133, 144, 1)" stroke-width="1.5"></path><path d="M1412.53 69.66L1412.53 69.66" stroke="rgba(128, 133, 144, 1)" stroke-width="1.5"></path><path d="M1412.53 69.66L1421.62 200.45" stroke="rgba(128, 133, 144, 1)" stroke-width="1.5"></path><path d="M1412.53 69.66L1557.59 107.69" stroke="rgba(128, 133, 144, 1)" stroke-width="1.5"></path><path d="M1421.62 200.45L1421.62 200.45" stroke="rgba(128, 133, 144, 1)" stroke-width="1.5"></path><path d="M1421.62 200.45L1442.22 356.59" stroke="rgba(128, 133, 144, 1)" stroke-width="1.5"></path><path d="M1442.22 356.59L1442.22 356.59" stroke="rgba(128, 133, 144, 1)" stroke-width="1.5"></path><path d="M1442.22 356.59L1579.54 347.84" stroke="rgba(128, 133, 144, 1)" stroke-width="1.5"></path><path d="M1442.22 356.59L1424.59 529.43" stroke="rgba(128, 133, 144, 1)" stroke-width="1.5"></path><path d="M1442.22 356.59L1268.01 348.06" stroke="rgba(128, 133, 144, 1)" stroke-width="1.5"></path><path d="M1424.59 529.43L1424.59 529.43" stroke="rgba(128, 133, 144, 1)" stroke-width="1.5"></path><path d="M1424.59 529.43L1569.87 511.85" stroke="rgba(128, 133, 144, 1)" stroke-width="1.5"></path><path d="M1404.28 678.62L1404.28 678.62" stroke="rgba(128, 133, 144, 1)" stroke-width="1.5"></path><path d="M1404.28 678.62L1424.59 529.43" stroke="rgba(128, 133, 144, 1)" stroke-width="1.5"></path><path d="M1404.28 678.62L1573.4 670.1" stroke="rgba(128, 133, 144, 1)" stroke-width="1.5"></path><path d="M1404.28 678.62L1284.12 490.8" stroke="rgba(128, 133, 144, 1)" stroke-width="1.5"></path><path d="M1558.07 -108.92L1558.07 -108.92" stroke="rgba(128, 133, 144, 1)" stroke-width="1.5"></path><path d="M1558.07 -108.92L1557.59 107.69" stroke="rgba(128, 133, 144, 1)" stroke-width="1.5"></path><path d="M1558.07 -108.92L1412.53 69.66" stroke="rgba(128, 133, 144, 1)" stroke-width="1.5"></path><path d="M1558.07 -108.92L1294.51 -86.35" stroke="rgba(128, 133, 144, 1)" stroke-width="1.5"></path><path d="M1558.07 -108.92L1583.68 221.2" stroke="rgba(128, 133, 144, 1)" stroke-width="1.5"></path><path d="M1557.59 107.69L1557.59 107.69" stroke="rgba(128, 133, 144, 1)" stroke-width="1.5"></path><path d="M1557.59 107.69L1583.68 221.2" stroke="rgba(128, 133, 144, 1)" stroke-width="1.5"></path><path d="M1557.59 107.69L1421.62 200.45" stroke="rgba(128, 133, 144, 1)" stroke-width="1.5"></path><path d="M1583.68 221.2L1583.68 221.2" stroke="rgba(128, 133, 144, 1)" stroke-width="1.5"></path><path d="M1579.54 347.84L1579.54 347.84" stroke="rgba(128, 133, 144, 1)" stroke-width="1.5"></path><path d="M1579.54 347.84L1583.68 221.2" stroke="rgba(128, 133, 144, 1)" stroke-width="1.5"></path><path d="M1579.54 347.84L1569.87 511.85" stroke="rgba(128, 133, 144, 1)" stroke-width="1.5"></path><path d="M1569.87 511.85L1569.87 511.85" stroke="rgba(128, 133, 144, 1)" stroke-width="1.5"></path><path d="M1569.87 511.85L1573.4 670.1" stroke="rgba(128, 133, 144, 1)" stroke-width="1.5"></path><path d="M1569.87 511.85L1442.22 356.59" stroke="rgba(128, 133, 144, 1)" stroke-width="1.5"></path><path d="M1569.87 511.85L1404.28 678.62" stroke="rgba(128, 133, 144, 1)" stroke-width="1.5"></path><path d="M1569.87 511.85L1284.12 490.8" stroke="rgba(128, 133, 144, 1)" stroke-width="1.5"></path><path d="M1573.4 670.1L1573.4 670.1" stroke="rgba(128, 133, 144, 1)" stroke-width="1.5"></path><path d="M1573.4 670.1L1424.59 529.43" stroke="rgba(128, 133, 144, 1)" stroke-width="1.5"></path><circle r="5" cx="-78.65" cy="378.5" fill="rgba(128, 133, 144, 1)"></circle><circle r="5" cx="-77.65" cy="541.36" fill="rgba(128, 133, 144, 1)"></circle><circle r="5" cx="-103.86" cy="706.5" fill="rgba(128, 133, 144, 1)"></circle><circle r="5" cx="66.19" cy="365.16" fill="rgba(128, 133, 144, 1)"></circle><circle r="5" cx="82.93" cy="678.68" fill="rgba(128, 133, 144, 1)"></circle><circle r="5" cx="246.81" cy="406.8" fill="rgba(128, 133, 144, 1)"></circle><circle r="5" cx="206.27" cy="549.65" fill="rgba(128, 133, 144, 1)"></circle><circle r="5" cx="188.47" cy="686.68" fill="rgba(128, 133, 144, 1)"></circle><circle r="5" cx="383.46" cy="398.82" fill="rgba(128, 133, 144, 1)"></circle><circle r="5" cx="363.07" cy="488.83" fill="rgba(128, 133, 144, 1)"></circle><circle r="5" cx="353.74" cy="668.9" fill="rgba(128, 133, 144, 1)"></circle><circle r="5" cx="546.23" cy="403.23" fill="rgba(128, 133, 144, 1)"></circle><circle r="5" cx="489.45" cy="513.53" fill="rgba(128, 133, 144, 1)"></circle><circle r="5" cx="526.57" cy="696.89" fill="rgba(128, 133, 144, 1)"></circle><circle r="5" cx="685.9" cy="251.99" fill="rgba(128, 133, 144, 1)"></circle><circle r="5" cx="677.2" cy="397.67" fill="rgba(128, 133, 144, 1)"></circle><circle r="5" cx="658.69" cy="498.69" fill="rgba(128, 133, 144, 1)"></circle><circle r="5" cx="644.11" cy="664.74" fill="rgba(128, 133, 144, 1)"></circle><circle r="5" cx="854.89" cy="74.6" fill="rgba(128, 133, 144, 1)"></circle><circle r="5" cx="796.13" cy="255.68" fill="rgba(128, 133, 144, 1)"></circle><circle r="5" cx="853.89" cy="398.72" fill="rgba(128, 133, 144, 1)"></circle><circle r="5" cx="822.23" cy="549.14" fill="rgba(128, 133, 144, 1)"></circle><circle r="5" cx="814.85" cy="702.71" fill="rgba(128, 133, 144, 1)"></circle><circle r="5" cx="994.97" cy="-73.48" fill="rgba(128, 133, 144, 1)"></circle><circle r="5" cx="1011.94" cy="111.6" fill="rgba(128, 133, 144, 1)"></circle><circle r="5" cx="974.18" cy="343.29" fill="rgba(128, 133, 144, 1)"></circle><circle r="5" cx="991.14" cy="512.77" fill="rgba(128, 133, 144, 1)"></circle><circle r="5" cx="984.04" cy="660.38" fill="rgba(128, 133, 144, 1)"></circle><circle r="5" cx="1149.04" cy="-40.62" fill="rgba(128, 133, 144, 1)"></circle><circle r="5" cx="1142.85" cy="65.08" fill="rgba(128, 133, 144, 1)"></circle><circle r="5" cx="1142.34" cy="249.88" fill="rgba(128, 133, 144, 1)"></circle><circle r="5" cx="1096.87" cy="374.51" fill="rgba(128, 133, 144, 1)"></circle><circle r="5" cx="1143.39" cy="549.87" fill="rgba(128, 133, 144, 1)"></circle><circle r="5" cx="1161.37" cy="678.54" fill="rgba(128, 133, 144, 1)"></circle><circle r="5" cx="1294.51" cy="-86.35" fill="rgba(128, 133, 144, 1)"></circle><circle r="5" cx="1263.31" cy="51.96" fill="rgba(128, 133, 144, 1)"></circle><circle r="5" cx="1249.82" cy="226.25" fill="rgba(128, 133, 144, 1)"></circle><circle r="5" cx="1268.01" cy="348.06" fill="rgba(128, 133, 144, 1)"></circle><circle r="5" cx="1284.12" cy="490.8" fill="rgba(128, 133, 144, 1)"></circle><circle r="5" cx="1302.32" cy="696.61" fill="rgba(128, 133, 144, 1)"></circle><circle r="5" cx="1424.39" cy="-46.4" fill="rgba(128, 133, 144, 1)"></circle><circle r="5" cx="1412.53" cy="69.66" fill="rgba(128, 133, 144, 1)"></circle><circle r="5" cx="1421.62" cy="200.45" fill="rgba(128, 133, 144, 1)"></circle><circle r="5" cx="1442.22" cy="356.59" fill="rgba(128, 133, 144, 1)"></circle><circle r="5" cx="1424.59" cy="529.43" fill="rgba(128, 133, 144, 1)"></circle><circle r="5" cx="1404.28" cy="678.62" fill="rgba(128, 133, 144, 1)"></circle><circle r="5" cx="1558.07" cy="-108.92" fill="rgba(128, 133, 144, 1)"></circle><circle r="5" cx="1557.59" cy="107.69" fill="rgba(128, 133, 144, 1)"></circle><circle r="5" cx="1583.68" cy="221.2" fill="rgba(128, 133, 144, 1)"></circle><circle r="5" cx="1579.54" cy="347.84" fill="rgba(128, 133, 144, 1)"></circle><circle r="5" cx="1569.87" cy="511.85" fill="rgba(128, 133, 144, 1)"></circle><circle r="5" cx="1573.4" cy="670.1" fill="rgba(128, 133, 144, 1)"></circle><path d="M791.3 523.03L791.3 523.03" stroke="hsl(240, 7.2%, 46.1%)" stroke-width="1.5"></path><path d="M791.3 523.03L670.4 502.42" stroke="hsl(240, 7.2%, 46.1%)" stroke-width="1.5"></path><path d="M791.3 523.03L808.59 390.38" stroke="hsl(240, 7.2%, 46.1%)" stroke-width="1.5"></path><path d="M791.3 523.03L962.72 543.65" stroke="hsl(240, 7.2%, 46.1%)" stroke-width="1.5"></path><path d="M1158.27 -57.34L1158.27 -57.34" stroke="hsl(240, 7.2%, 46.1%)" stroke-width="1.5"></path><path d="M1158.27 -57.34L1138.14 74.17" stroke="hsl(240, 7.2%, 46.1%)" stroke-width="1.5"></path><path d="M1158.27 -57.34L1286.8 44.76" stroke="hsl(240, 7.2%, 46.1%)" stroke-width="1.5"></path><path d="M1158.27 -57.34L1146.86 198" stroke="hsl(240, 7.2%, 46.1%)" stroke-width="1.5"></path><path d="M1146.86 198L1146.86 198" stroke="hsl(240, 7.2%, 46.1%)" stroke-width="1.5"></path><path d="M1146.86 198L1138.14 74.17" stroke="hsl(240, 7.2%, 46.1%)" stroke-width="1.5"></path><path d="M1146.86 198L1302.53 220.21" stroke="hsl(240, 7.2%, 46.1%)" stroke-width="1.5"></path><path d="M1146.86 198L1094.47 397.49" stroke="hsl(240, 7.2%, 46.1%)" stroke-width="1.5"></path><path d="M1146.86 198L1286.8 44.76" stroke="hsl(240, 7.2%, 46.1%)" stroke-width="1.5"></path><path d="M1146.86 198L1291.11 361.68" stroke="hsl(240, 7.2%, 46.1%)" stroke-width="1.5"></path><path d="M1302.53 220.21L1302.53 220.21" stroke="hsl(240, 7.2%, 46.1%)" stroke-width="1.5"></path><path d="M1302.53 220.21L1413.35 260.88" stroke="hsl(240, 7.2%, 46.1%)" stroke-width="1.5"></path><path d="M1302.53 220.21L1291.11 361.68" stroke="hsl(240, 7.2%, 46.1%)" stroke-width="1.5"></path><path d="M1302.53 220.21L1286.8 44.76" stroke="hsl(240, 7.2%, 46.1%)" stroke-width="1.5"></path><path d="M1302.53 220.21L1449.58 112.03" stroke="hsl(240, 7.2%, 46.1%)" stroke-width="1.5"></path><path d="M1302.53 220.21L1405.11 405.64" stroke="hsl(240, 7.2%, 46.1%)" stroke-width="1.5"></path><path d="M1565.51 218.07L1565.51 218.07" stroke="hsl(240, 7.2%, 46.1%)" stroke-width="1.5"></path><path d="M1565.51 218.07L1548.34 339.45" stroke="hsl(240, 7.2%, 46.1%)" stroke-width="1.5"></path><path d="M1565.51 218.07L1449.58 112.03" stroke="hsl(240, 7.2%, 46.1%)" stroke-width="1.5"></path><path d="M1565.51 218.07L1413.35 260.88" stroke="hsl(240, 7.2%, 46.1%)" stroke-width="1.5"></path><path d="M1565.51 218.07L1608.29 45.69" stroke="hsl(240, 7.2%, 46.1%)" stroke-width="1.5"></path><path d="M1565.51 218.07L1405.11 405.64" stroke="hsl(240, 7.2%, 46.1%)" stroke-width="1.5"></path><path d="M-62.48 655.12L-62.48 655.12" stroke="hsl(240, 7.2%, 46.1%)" stroke-width="1.5"></path><path d="M-62.48 655.12L48.03 659.1" stroke="hsl(240, 7.2%, 46.1%)" stroke-width="1.5"></path><path d="M-62.48 655.12L70.09 559.06" stroke="hsl(240, 7.2%, 46.1%)" stroke-width="1.5"></path><path d="M-62.48 655.12L219.7 696.54" stroke="hsl(240, 7.2%, 46.1%)" stroke-width="1.5"></path><path d="M-62.48 655.12L211.95 550.01" stroke="hsl(240, 7.2%, 46.1%)" stroke-width="1.5"></path><path d="M70.09 559.06L70.09 559.06" stroke="hsl(240, 7.2%, 46.1%)" stroke-width="1.5"></path><path d="M70.09 559.06L48.03 659.1" stroke="hsl(240, 7.2%, 46.1%)" stroke-width="1.5"></path><path d="M70.09 559.06L211.95 550.01" stroke="hsl(240, 7.2%, 46.1%)" stroke-width="1.5"></path><path d="M70.09 559.06L219.7 696.54" stroke="hsl(240, 7.2%, 46.1%)" stroke-width="1.5"></path><path d="M70.09 559.06L389.02 656.21" stroke="hsl(240, 7.2%, 46.1%)" stroke-width="1.5"></path><path d="M70.09 559.06L550.53 648.93" stroke="hsl(240, 7.2%, 46.1%)" stroke-width="1.5"></path><path d="M48.03 659.1L48.03 659.1" stroke="hsl(240, 7.2%, 46.1%)" stroke-width="1.5"></path><path d="M48.03 659.1L219.7 696.54" stroke="hsl(240, 7.2%, 46.1%)" stroke-width="1.5"></path><path d="M48.03 659.1L211.95 550.01" stroke="hsl(240, 7.2%, 46.1%)" stroke-width="1.5"></path><path d="M48.03 659.1L389.02 656.21" stroke="hsl(240, 7.2%, 46.1%)" stroke-width="1.5"></path><path d="M48.03 659.1L550.53 648.93" stroke="hsl(240, 7.2%, 46.1%)" stroke-width="1.5"></path><path d="M211.95 550.01L211.95 550.01" stroke="hsl(240, 7.2%, 46.1%)" stroke-width="1.5"></path><path d="M211.95 550.01L219.7 696.54" stroke="hsl(240, 7.2%, 46.1%)" stroke-width="1.5"></path><path d="M219.7 696.54L219.7 696.54" stroke="hsl(240, 7.2%, 46.1%)" stroke-width="1.5"></path><path d="M219.7 696.54L389.02 656.21" stroke="hsl(240, 7.2%, 46.1%)" stroke-width="1.5"></path><path d="M389.02 656.21L389.02 656.21" stroke="hsl(240, 7.2%, 46.1%)" stroke-width="1.5"></path><path d="M389.02 656.21L550.53 648.93" stroke="hsl(240, 7.2%, 46.1%)" stroke-width="1.5"></path><path d="M389.02 656.21L211.95 550.01" stroke="hsl(240, 7.2%, 46.1%)" stroke-width="1.5"></path><path d="M389.02 656.21L639.25 689.77" stroke="hsl(240, 7.2%, 46.1%)" stroke-width="1.5"></path><path d="M389.02 656.21L670.4 502.42" stroke="hsl(240, 7.2%, 46.1%)" stroke-width="1.5"></path><path d="M550.53 648.93L550.53 648.93" stroke="hsl(240, 7.2%, 46.1%)" stroke-width="1.5"></path><path d="M550.53 648.93L639.25 689.77" stroke="hsl(240, 7.2%, 46.1%)" stroke-width="1.5"></path><path d="M550.53 648.93L670.4 502.42" stroke="hsl(240, 7.2%, 46.1%)" stroke-width="1.5"></path><path d="M550.53 648.93L791.3 523.03" stroke="hsl(240, 7.2%, 46.1%)" stroke-width="1.5"></path><path d="M670.4 502.42L670.4 502.42" stroke="hsl(240, 7.2%, 46.1%)" stroke-width="1.5"></path><path d="M670.4 502.42L808.59 390.38" stroke="hsl(240, 7.2%, 46.1%)" stroke-width="1.5"></path><path d="M670.4 502.42L639.25 689.77" stroke="hsl(240, 7.2%, 46.1%)" stroke-width="1.5"></path><path d="M670.4 502.42L850.11 689.86" stroke="hsl(240, 7.2%, 46.1%)" stroke-width="1.5"></path><path d="M639.25 689.77L639.25 689.77" stroke="hsl(240, 7.2%, 46.1%)" stroke-width="1.5"></path><path d="M639.25 689.77L850.11 689.86" stroke="hsl(240, 7.2%, 46.1%)" stroke-width="1.5"></path><path d="M808.59 390.38L808.59 390.38" stroke="hsl(240, 7.2%, 46.1%)" stroke-width="1.5"></path><path d="M808.59 390.38L972.42 355.57" stroke="hsl(240, 7.2%, 46.1%)" stroke-width="1.5"></path><path d="M808.59 390.38L962.72 543.65" stroke="hsl(240, 7.2%, 46.1%)" stroke-width="1.5"></path><path d="M850.11 689.86L850.11 689.86" stroke="hsl(240, 7.2%, 46.1%)" stroke-width="1.5"></path><path d="M850.11 689.86L938.05 643.35" stroke="hsl(240, 7.2%, 46.1%)" stroke-width="1.5"></path><path d="M850.11 689.86L791.3 523.03" stroke="hsl(240, 7.2%, 46.1%)" stroke-width="1.5"></path><path d="M850.11 689.86L962.72 543.65" stroke="hsl(240, 7.2%, 46.1%)" stroke-width="1.5"></path><path d="M972.42 355.57L972.42 355.57" stroke="hsl(240, 7.2%, 46.1%)" stroke-width="1.5"></path><path d="M972.42 355.57L1094.47 397.49" stroke="hsl(240, 7.2%, 46.1%)" stroke-width="1.5"></path><path d="M972.42 355.57L962.72 543.65" stroke="hsl(240, 7.2%, 46.1%)" stroke-width="1.5"></path><path d="M972.42 355.57L1124.2 523.89" stroke="hsl(240, 7.2%, 46.1%)" stroke-width="1.5"></path><path d="M972.42 355.57L1146.86 198" stroke="hsl(240, 7.2%, 46.1%)" stroke-width="1.5"></path><path d="M972.42 355.57L791.3 523.03" stroke="hsl(240, 7.2%, 46.1%)" stroke-width="1.5"></path><path d="M962.72 543.65L962.72 543.65" stroke="hsl(240, 7.2%, 46.1%)" stroke-width="1.5"></path><path d="M962.72 543.65L938.05 643.35" stroke="hsl(240, 7.2%, 46.1%)" stroke-width="1.5"></path><path d="M962.72 543.65L1124.2 523.89" stroke="hsl(240, 7.2%, 46.1%)" stroke-width="1.5"></path><path d="M938.05 643.35L938.05 643.35" stroke="hsl(240, 7.2%, 46.1%)" stroke-width="1.5"></path><path d="M938.05 643.35L791.3 523.03" stroke="hsl(240, 7.2%, 46.1%)" stroke-width="1.5"></path><path d="M938.05 643.35L1124.2 523.89" stroke="hsl(240, 7.2%, 46.1%)" stroke-width="1.5"></path><path d="M938.05 643.35L1154.78 698.4" stroke="hsl(240, 7.2%, 46.1%)" stroke-width="1.5"></path><path d="M1138.14 74.17L1138.14 74.17" stroke="hsl(240, 7.2%, 46.1%)" stroke-width="1.5"></path><path d="M1138.14 74.17L1286.8 44.76" stroke="hsl(240, 7.2%, 46.1%)" stroke-width="1.5"></path><path d="M1138.14 74.17L1302.53 220.21" stroke="hsl(240, 7.2%, 46.1%)" stroke-width="1.5"></path><path d="M1138.14 74.17L1449.58 112.03" stroke="hsl(240, 7.2%, 46.1%)" stroke-width="1.5"></path><path d="M1138.14 74.17L1291.11 361.68" stroke="hsl(240, 7.2%, 46.1%)" stroke-width="1.5"></path><path d="M1094.47 397.49L1094.47 397.49" stroke="hsl(240, 7.2%, 46.1%)" stroke-width="1.5"></path><path d="M1094.47 397.49L1124.2 523.89" stroke="hsl(240, 7.2%, 46.1%)" stroke-width="1.5"></path><path d="M1094.47 397.49L962.72 543.65" stroke="hsl(240, 7.2%, 46.1%)" stroke-width="1.5"></path><path d="M1124.2 523.89L1124.2 523.89" stroke="hsl(240, 7.2%, 46.1%)" stroke-width="1.5"></path><path d="M1124.2 523.89L1290.37 526.04" stroke="hsl(240, 7.2%, 46.1%)" stroke-width="1.5"></path><path d="M1124.2 523.89L1154.78 698.4" stroke="hsl(240, 7.2%, 46.1%)" stroke-width="1.5"></path><path d="M1154.78 698.4L1154.78 698.4" stroke="hsl(240, 7.2%, 46.1%)" stroke-width="1.5"></path><path d="M1154.78 698.4L1302.49 667.65" stroke="hsl(240, 7.2%, 46.1%)" stroke-width="1.5"></path><path d="M1154.78 698.4L1290.37 526.04" stroke="hsl(240, 7.2%, 46.1%)" stroke-width="1.5"></path><path d="M1154.78 698.4L1389.59 706.11" stroke="hsl(240, 7.2%, 46.1%)" stroke-width="1.5"></path><path d="M1154.78 698.4L962.72 543.65" stroke="hsl(240, 7.2%, 46.1%)" stroke-width="1.5"></path><path d="M1286.8 44.76L1286.8 44.76" stroke="hsl(240, 7.2%, 46.1%)" stroke-width="1.5"></path><path d="M1286.8 44.76L1449.58 112.03" stroke="hsl(240, 7.2%, 46.1%)" stroke-width="1.5"></path><path d="M1286.8 44.76L1421.44 -108.88" stroke="hsl(240, 7.2%, 46.1%)" stroke-width="1.5"></path><path d="M1291.11 361.68L1291.11 361.68" stroke="hsl(240, 7.2%, 46.1%)" stroke-width="1.5"></path><path d="M1291.11 361.68L1405.11 405.64" stroke="hsl(240, 7.2%, 46.1%)" stroke-width="1.5"></path><path d="M1291.11 361.68L1413.35 260.88" stroke="hsl(240, 7.2%, 46.1%)" stroke-width="1.5"></path><path d="M1291.11 361.68L1290.37 526.04" stroke="hsl(240, 7.2%, 46.1%)" stroke-width="1.5"></path><path d="M1290.37 526.04L1290.37 526.04" stroke="hsl(240, 7.2%, 46.1%)" stroke-width="1.5"></path><path d="M1290.37 526.04L1396.74 562.08" stroke="hsl(240, 7.2%, 46.1%)" stroke-width="1.5"></path><path d="M1290.37 526.04L1302.49 667.65" stroke="hsl(240, 7.2%, 46.1%)" stroke-width="1.5"></path><path d="M1290.37 526.04L1405.11 405.64" stroke="hsl(240, 7.2%, 46.1%)" stroke-width="1.5"></path><path d="M1302.49 667.65L1302.49 667.65" stroke="hsl(240, 7.2%, 46.1%)" stroke-width="1.5"></path><path d="M1302.49 667.65L1389.59 706.11" stroke="hsl(240, 7.2%, 46.1%)" stroke-width="1.5"></path><path d="M1302.49 667.65L1396.74 562.08" stroke="hsl(240, 7.2%, 46.1%)" stroke-width="1.5"></path><path d="M1302.49 667.65L1124.2 523.89" stroke="hsl(240, 7.2%, 46.1%)" stroke-width="1.5"></path><path d="M1302.49 667.65L1405.11 405.64" stroke="hsl(240, 7.2%, 46.1%)" stroke-width="1.5"></path><path d="M1421.44 -108.88L1421.44 -108.88" stroke="hsl(240, 7.2%, 46.1%)" stroke-width="1.5"></path><path d="M1421.44 -108.88L1578.72 -102.46" stroke="hsl(240, 7.2%, 46.1%)" stroke-width="1.5"></path><path d="M1421.44 -108.88L1449.58 112.03" stroke="hsl(240, 7.2%, 46.1%)" stroke-width="1.5"></path><path d="M1421.44 -108.88L1608.29 45.69" stroke="hsl(240, 7.2%, 46.1%)" stroke-width="1.5"></path><path d="M1421.44 -108.88L1158.27 -57.34" stroke="hsl(240, 7.2%, 46.1%)" stroke-width="1.5"></path><path d="M1449.58 112.03L1449.58 112.03" stroke="hsl(240, 7.2%, 46.1%)" stroke-width="1.5"></path><path d="M1449.58 112.03L1413.35 260.88" stroke="hsl(240, 7.2%, 46.1%)" stroke-width="1.5"></path><path d="M1413.35 260.88L1413.35 260.88" stroke="hsl(240, 7.2%, 46.1%)" stroke-width="1.5"></path><path d="M1413.35 260.88L1405.11 405.64" stroke="hsl(240, 7.2%, 46.1%)" stroke-width="1.5"></path><path d="M1413.35 260.88L1548.34 339.45" stroke="hsl(240, 7.2%, 46.1%)" stroke-width="1.5"></path><path d="M1405.11 405.64L1405.11 405.64" stroke="hsl(240, 7.2%, 46.1%)" stroke-width="1.5"></path><path d="M1405.11 405.64L1396.74 562.08" stroke="hsl(240, 7.2%, 46.1%)" stroke-width="1.5"></path><path d="M1405.11 405.64L1548.34 339.45" stroke="hsl(240, 7.2%, 46.1%)" stroke-width="1.5"></path><path d="M1396.74 562.08L1396.74 562.08" stroke="hsl(240, 7.2%, 46.1%)" stroke-width="1.5"></path><path d="M1396.74 562.08L1389.59 706.11" stroke="hsl(240, 7.2%, 46.1%)" stroke-width="1.5"></path><path d="M1396.74 562.08L1605.15 533.44" stroke="hsl(240, 7.2%, 46.1%)" stroke-width="1.5"></path><path d="M1389.59 706.11L1389.59 706.11" stroke="hsl(240, 7.2%, 46.1%)" stroke-width="1.5"></path><path d="M1578.72 -102.46L1578.72 -102.46" stroke="hsl(240, 7.2%, 46.1%)" stroke-width="1.5"></path><path d="M1578.72 -102.46L1608.29 45.69" stroke="hsl(240, 7.2%, 46.1%)" stroke-width="1.5"></path><path d="M1608.29 45.69L1608.29 45.69" stroke="hsl(240, 7.2%, 46.1%)" stroke-width="1.5"></path><path d="M1608.29 45.69L1449.58 112.03" stroke="hsl(240, 7.2%, 46.1%)" stroke-width="1.5"></path><path d="M1608.29 45.69L1413.35 260.88" stroke="hsl(240, 7.2%, 46.1%)" stroke-width="1.5"></path><path d="M1548.34 339.45L1548.34 339.45" stroke="hsl(240, 7.2%, 46.1%)" stroke-width="1.5"></path><path d="M1548.34 339.45L1605.15 533.44" stroke="hsl(240, 7.2%, 46.1%)" stroke-width="1.5"></path><path d="M1548.34 339.45L1449.58 112.03" stroke="hsl(240, 7.2%, 46.1%)" stroke-width="1.5"></path><path d="M1605.15 533.44L1605.15 533.44" stroke="hsl(240, 7.2%, 46.1%)" stroke-width="1.5"></path><path d="M1605.15 533.44L1604.58 680.7" stroke="hsl(240, 7.2%, 46.1%)" stroke-width="1.5"></path><path d="M1605.15 533.44L1405.11 405.64" stroke="hsl(240, 7.2%, 46.1%)" stroke-width="1.5"></path><path d="M1604.58 680.7L1604.58 680.7" stroke="hsl(240, 7.2%, 46.1%)" stroke-width="1.5"></path><path d="M1604.58 680.7L1389.59 706.11" stroke="hsl(240, 7.2%, 46.1%)" stroke-width="1.5"></path><path d="M1604.58 680.7L1396.74 562.08" stroke="hsl(240, 7.2%, 46.1%)" stroke-width="1.5"></path><path d="M1604.58 680.7L1302.49 667.65" stroke="hsl(240, 7.2%, 46.1%)" stroke-width="1.5"></path><circle r="25" cx="791.3" cy="523.03" fill="url(&quot;#SvgjsRadialGradient1108&quot;)"></circle><circle r="25" cx="1158.27" cy="-57.34" fill="url(&quot;#SvgjsRadialGradient1108&quot;)"></circle><circle r="25" cx="1146.86" cy="198" fill="url(&quot;#SvgjsRadialGradient1108&quot;)"></circle><circle r="25" cx="1302.53" cy="220.21" fill="url(&quot;#SvgjsRadialGradient1108&quot;)"></circle><circle r="25" cx="1565.51" cy="218.07" fill="url(&quot;#SvgjsRadialGradient1108&quot;)"></circle><circle r="5" cx="-62.48" cy="655.12" fill="#aaaab0"></circle><circle r="5" cx="70.09" cy="559.06" fill="#aaaab0"></circle><circle r="5" cx="48.03" cy="659.1" fill="#aaaab0"></circle><circle r="5" cx="211.95" cy="550.01" fill="#aaaab0"></circle><circle r="5" cx="219.7" cy="696.54" fill="#aaaab0"></circle><circle r="5" cx="389.02" cy="656.21" fill="#aaaab0"></circle><circle r="5" cx="550.53" cy="648.93" fill="#aaaab0"></circle><circle r="5" cx="670.4" cy="502.42" fill="#aaaab0"></circle><circle r="5" cx="639.25" cy="689.77" fill="#aaaab0"></circle><circle r="5" cx="808.59" cy="390.38" fill="#aaaab0"></circle><circle r="5" cx="850.11" cy="689.86" fill="#aaaab0"></circle><circle r="5" cx="972.42" cy="355.57" fill="#aaaab0"></circle><circle r="5" cx="962.72" cy="543.65" fill="#aaaab0"></circle><circle r="5" cx="938.05" cy="643.35" fill="#aaaab0"></circle><circle r="5" cx="1138.14" cy="74.17" fill="#aaaab0"></circle><circle r="5" cx="1094.47" cy="397.49" fill="#aaaab0"></circle><circle r="5" cx="1124.2" cy="523.89" fill="#aaaab0"></circle><circle r="5" cx="1154.78" cy="698.4" fill="#aaaab0"></circle><circle r="5" cx="1286.8" cy="44.76" fill="#aaaab0"></circle><circle r="5" cx="1291.11" cy="361.68" fill="#aaaab0"></circle><circle r="5" cx="1290.37" cy="526.04" fill="#aaaab0"></circle><circle r="5" cx="1302.49" cy="667.65" fill="#aaaab0"></circle><circle r="5" cx="1421.44" cy="-108.88" fill="#aaaab0"></circle><circle r="5" cx="1449.58" cy="112.03" fill="#aaaab0"></circle><circle r="5" cx="1413.35" cy="260.88" fill="#aaaab0"></circle><circle r="5" cx="1405.11" cy="405.64" fill="#aaaab0"></circle><circle r="5" cx="1396.74" cy="562.08" fill="#aaaab0"></circle><circle r="5" cx="1389.59" cy="706.11" fill="#aaaab0"></circle><circle r="5" cx="1578.72" cy="-102.46" fill="#aaaab0"></circle><circle r="5" cx="1608.29" cy="45.69" fill="#aaaab0"></circle><circle r="5" cx="1548.34" cy="339.45" fill="#aaaab0"></circle><circle r="5" cx="1605.15" cy="533.44" fill="#aaaab0"></circle><circle r="5" cx="1604.58" cy="680.7" fill="#aaaab0"></circle></g><defs><mask id="SvgjsMask1106"><rect width="1440" height="560" fill="#ffffff"></rect></mask><linearGradient x1="15.28%" y1="-39.29%" x2="84.72%" y2="139.29%" gradientUnits="userSpaceOnUse" id="SvgjsLinearGradient1107"><stop stop-color="#0e2a47" offset="0"></stop><stop stop-color="rgba(98, 102, 107, 1)" offset="1"></stop></linearGradient><radialGradient id="SvgjsRadialGradient1108"><stop stop-color="#ffffff" offset="0.1"></stop><stop stop-color="rgba(84, 84, 97, 1)" offset="0.2"></stop><stop stop-color="rgba(84, 84, 97, 0)" offset="1"></stop></radialGradient></defs></svg>